<svg width="80" height="80" viewBox="0 0 80 80" fill="none" xmlns="http://www.w3.org/2000/svg">
<path fill-rule="evenodd" clip-rule="evenodd" d="M70.1525 19.4732L42.1335 3.13378C40.6999 2.29781 38.9395 2.28831 37.4975 3.10842L9.06981 19.2751C7.57747 20.1238 6.64853 21.7357 6.66727 23.4896L7.01951 56.4392C7.03763 58.1372 7.94168 59.6872 9.3779 60.5246L37.3972 76.8643C38.8636 77.7194 40.6699 77.7083 42.1267 76.8348L69.8101 60.2342C71.2165 59.3908 72.0986 57.8595 72.1192 56.1845L72.5108 23.6689C72.5317 21.9311 71.6221 20.3301 70.1525 19.4732ZM74.619 56.2146C74.588 58.749 73.2534 61.0844 71.0959 62.3782L43.4123 78.9789C41.1739 80.3211 38.3923 80.3386 36.1379 79.024L8.11863 62.6843C5.91529 61.3996 4.54708 59.0355 4.51965 56.4659L4.16741 23.5163C4.13905 20.8626 5.54433 18.4041 7.83391 17.102L36.2615 0.935298C38.4784 -0.325512 41.1895 -0.310679 43.3928 0.974126L71.4119 17.3135C73.6666 18.6282 75.0423 21.0699 75.0106 23.699L74.619 56.2146Z" fill="url(#paint0_linear_3307_15493)"/>
<path d="M63.4552 23.5308L42.4408 11.6848C40.7883 10.7533 38.755 10.7425 37.0924 11.6566L15.7717 23.3774C14.0545 24.3215 13.0005 26.1039 13.0218 28.0278L13.286 51.9163C13.3066 53.7792 14.3327 55.4932 15.9852 56.4246L36.9996 68.2709C38.6905 69.224 40.7766 69.2113 42.4555 68.2382L63.2181 56.2027C64.8363 55.2647 65.8372 53.5715 65.8605 51.7341L66.1542 28.1603C66.1779 26.2542 65.1462 24.484 63.4552 23.5308Z" fill="url(#paint1_linear_3307_15493)"/>
<path d="M47.8163 24C44.4065 24 41.6325 26.6729 41.6325 29.9583V34.0415H38.3675V29.9583C38.3675 26.6729 35.5935 24 32.1837 24C28.774 24 26 26.6729 26 29.9583V42.5103C26 44.2297 27.3128 45.6587 29.0233 45.9165C28.757 46.3987 28.6053 46.9482 28.6053 47.5313C28.6053 51.5347 31.2612 55.4192 31.3742 55.5825C31.5546 55.8433 31.8584 56 32.1837 56C32.5091 56 32.8129 55.8433 32.9933 55.5825C33.1063 55.4192 35.7622 51.5347 35.7622 47.5313C35.7622 46.9482 35.6107 46.3987 35.3444 45.9165C37.055 45.6587 38.3677 44.2297 38.3677 42.5103V40.9375H41.6325V42.5103C41.6325 44.2297 42.9453 45.6587 44.6559 45.9165C44.3896 46.3987 44.238 46.9482 44.238 47.5313C44.238 51.5347 46.8937 55.4192 47.0067 55.5825C47.1871 55.8433 47.4909 56 47.8163 56C48.1416 56 48.4454 55.8433 48.6258 55.5825C48.7388 55.4192 51.3947 51.5347 51.3947 47.5313C51.3947 46.9482 51.2432 46.3987 50.9769 45.9165C52.6872 45.6587 54 44.2297 54 42.5103V29.9583C54 26.6729 51.226 24 47.8163 24ZM43.5785 29.9583C43.5785 27.7068 45.4796 25.875 47.8163 25.875C50.1529 25.875 52.054 27.7068 52.054 29.9583V39.0625H43.5785V29.9583ZM32.1837 25.875C34.5204 25.875 36.4215 27.7068 36.4215 29.9583V39.0625H27.946V29.9583C27.946 27.7068 29.8471 25.875 32.1837 25.875ZM32.1827 53.1646C31.472 51.8142 30.5512 49.6553 30.5512 47.5313C30.5512 46.6638 31.2835 45.9583 32.1837 45.9583C33.084 45.9583 33.8163 46.6638 33.8163 47.5313C33.8163 49.6482 32.894 51.8113 32.1827 53.1646ZM34.7892 44.0833H29.5782C28.6782 44.0833 27.946 43.3777 27.946 42.5103V40.9375H36.4215V42.5103C36.4215 43.3777 35.6895 44.0833 34.7892 44.0833ZM38.3675 35.9165H41.6325V39.0625H38.3675V35.9165ZM47.8152 53.1646C47.1045 51.8142 46.1837 49.6553 46.1837 47.5313C46.1837 46.6638 46.916 45.9583 47.8163 45.9583C48.7165 45.9583 49.4488 46.6638 49.4488 47.5313C49.4488 49.6482 48.5265 51.8113 47.8152 53.1646ZM50.4218 44.0833H45.2108C44.3108 44.0833 43.5785 43.3777 43.5785 42.5103V40.9375H52.054V42.5103C52.054 43.3777 51.322 44.0833 50.4218 44.0833Z" fill="#4FAD95"/>
<defs>
<linearGradient id="paint0_linear_3307_15493" x1="22.862" y1="7.99979" x2="58.1544" y2="70.0119" gradientUnits="userSpaceOnUse">
<stop stop-color="#4FAD95"/>
<stop offset="1" stop-color="#4FAD95" stop-opacity="0.25"/>
</linearGradient>
<linearGradient id="paint1_linear_3307_15493" x1="13.0313" y1="11.1384" x2="70.8891" y2="64.1604" gradientUnits="userSpaceOnUse">
<stop stop-color="#2C6355"/>
<stop offset="1" stop-color="#121214"/>
</linearGradient>
</defs>
</svg>
